<svg width="28" height="28" viewBox="0 0 28 28" fill="none" xmlns="http://www.w3.org/2000/svg">
<g clip-path="url(#clip0_47_223)">
<path d="M23.625 5.25V6.125H0.875V5.25C0.875 3.80275 2.05275 2.625 3.5 2.625H4.375V1.75C4.375 1.26613 4.767 0.875 5.25 0.875C5.733 0.875 6.125 1.26613 6.125 1.75V2.625H11.375V1.75C11.375 1.26613 11.767 0.875 12.25 0.875C12.733 0.875 13.125 1.26613 13.125 1.75V2.625H18.375V1.75C18.375 1.26613 18.767 0.875 19.25 0.875C19.733 0.875 20.125 1.26613 20.125 1.75V2.625H21C22.4473 2.625 23.625 3.80275 23.625 5.25ZM27.125 21C27.125 24.3819 24.3827 27.125 21 27.125C17.6173 27.125 14.875 24.3819 14.875 21C14.875 17.6181 17.6173 14.875 21 14.875C24.3827 14.875 27.125 17.6181 27.125 21ZM24.5 21C24.5 20.5161 24.108 20.125 23.625 20.125H21.875V18.375C21.875 17.8911 21.483 17.5 21 17.5C20.517 17.5 20.125 17.8911 20.125 18.375V21C20.125 21.4839 20.517 21.875 21 21.875H23.625C24.108 21.875 24.5 21.4839 24.5 21ZM23.625 7.875V13.58C22.8025 13.2825 21.9188 13.125 21 13.125C16.66 13.125 13.125 16.66 13.125 21C13.125 21.9188 13.2825 22.8025 13.58 23.625H3.5C2.05625 23.625 0.875 22.4438 0.875 21V7.875H23.625ZM8.75 19.25C8.75 18.7661 8.358 18.375 7.875 18.375H6.125C5.642 18.375 5.25 18.7661 5.25 19.25C5.25 19.7339 5.642 20.125 6.125 20.125H7.875C8.358 20.125 8.75 19.7339 8.75 19.25ZM8.75 15.75C8.75 15.2661 8.358 14.875 7.875 14.875H6.125C5.642 14.875 5.25 15.2661 5.25 15.75C5.25 16.2339 5.642 16.625 6.125 16.625H7.875C8.358 16.625 8.75 16.2339 8.75 15.75ZM8.75 12.25C8.75 11.7661 8.358 11.375 7.875 11.375H6.125C5.642 11.375 5.25 11.7661 5.25 12.25C5.25 12.7339 5.642 13.125 6.125 13.125H7.875C8.358 13.125 8.75 12.7339 8.75 12.25ZM14 12.25C14 11.7661 13.608 11.375 13.125 11.375H11.375C10.892 11.375 10.5 11.7661 10.5 12.25C10.5 12.7339 10.892 13.125 11.375 13.125H13.125C13.608 13.125 14 12.7339 14 12.25Z" fill="white"/>
</g>
<defs>
<clipPath id="clip0_47_223">
<rect width="28" height="28" fill="white"/>
</clipPath>
</defs>
</svg>
