<svg width="28" height="28" viewBox="0 0 28 28" fill="none" xmlns="http://www.w3.org/2000/svg">
<g clip-path="url(#clip0_29_553)">
<path d="M10.7916 0H2.0416C0.915802 0 0 0.915802 0 2.0416V7.2916C0 8.4176 0.915802 9.3334 2.0416 9.3334H10.7916C11.9176 9.3334 12.8334 8.4176 12.8334 7.2916V2.0416C12.8334 0.915802 11.9176 0 10.7916 0Z" fill="white" fill-opacity="0.49"/>
<path d="M10.7916 11.6665H2.0416C0.915802 11.6665 0 12.5823 0 13.7083V25.9583C0 27.0841 0.915802 27.9999 2.0416 27.9999H10.7916C11.9176 27.9999 12.8334 27.0841 12.8334 25.9583V13.7083C12.8334 12.5823 11.9176 11.6665 10.7916 11.6665Z" fill="white" fill-opacity="0.49"/>
<path d="M25.9584 18.6665H17.2084C16.0824 18.6665 15.1666 19.5823 15.1666 20.7083V25.9583C15.1666 27.0841 16.0824 27.9999 17.2084 27.9999H25.9584C27.0842 27.9999 28 27.0841 28 25.9583V20.7083C28 19.5823 27.0842 18.6665 25.9584 18.6665Z" fill="white" fill-opacity="0.49"/>
<path d="M25.9584 0H17.2084C16.0824 0 15.1666 0.915802 15.1666 2.0416V14.2916C15.1666 15.4176 16.0824 16.3334 17.2084 16.3334H25.9584C27.0842 16.3334 28 15.4176 28 14.2916V2.0416C28 0.915802 27.0842 0 25.9584 0Z" fill="white" fill-opacity="0.49"/>
</g>
<defs>
<clipPath id="clip0_29_553">
<rect width="28" height="28" fill="white"/>
</clipPath>
</defs>
</svg>
