<svg width="28" height="28" viewBox="0 0 28 28" fill="none" xmlns="http://www.w3.org/2000/svg">
<g clip-path="url(#clip0_29_563)">
<path fill-rule="evenodd" clip-rule="evenodd" d="M11.3943 8.26487H16.6058C16.5144 7.99422 16.4648 7.70432 16.4648 7.40288C16.4648 7.00459 16.5514 6.62654 16.7066 6.28638C16.0478 5.5329 15.0795 5.0569 14 5.0569C12.9205 5.0569 11.9523 5.5329 11.2934 6.28627C11.4487 6.62643 11.5353 7.00454 11.5353 7.40283C11.5353 7.70432 11.4857 7.99422 11.3943 8.26487ZM13.844 27.0815C11.1575 25.5034 6.21502 21.8815 6.14906 18.2674C6.07562 14.2441 10.5979 12.4193 14 15.8787C17.4016 12.4199 21.9237 14.2434 21.8509 18.2668C21.7856 21.881 16.8427 25.5032 14.156 27.0815C14.0571 27.1395 13.9429 27.1395 13.844 27.0815ZM12.9431 19.7277H10.7812V21.8415H12.9431V24.0033H15.0569V21.8415H17.2187V19.7276H15.0569V17.5657H12.9431V19.7277ZM23.551 10.5785C22.5472 10.5785 21.7335 11.3922 21.7335 12.396C21.7335 13.3997 22.5473 14.2134 23.551 14.2134C24.5548 14.2134 25.3685 13.3997 25.3685 12.396C25.3685 11.3922 24.5548 10.5785 23.551 10.5785ZM4.44905 10.5785C3.44526 10.5785 2.63151 11.3922 2.63151 12.396C2.63151 13.3997 3.44526 14.2134 4.44905 14.2134C5.45284 14.2134 6.26653 13.3997 6.26653 12.396C6.26653 11.3922 5.45284 10.5785 4.44905 10.5785ZM22.7231 17.9683H26.739C26.9502 17.9683 27.1053 17.7749 27.0593 17.5687C26.7006 15.9617 25.2661 14.7604 23.551 14.7604C22.9314 14.7604 22.3485 14.9173 21.8396 15.1933C22.3829 15.9841 22.6869 16.9454 22.7231 17.9683ZM1.26104 17.9683H5.27696C5.31305 16.9454 5.61706 15.9841 6.16044 15.1933C5.65157 14.9172 5.06866 14.7604 4.44905 14.7604C2.73388 14.7604 1.29943 15.9617 0.940734 17.5687C0.894742 17.7749 1.04984 17.9683 1.26104 17.9683ZM7.07886 12.9752H12.0308C12.242 12.9752 12.3971 12.7817 12.3511 12.5756C11.9924 10.9686 10.558 9.7673 8.84286 9.7673C7.94402 9.7673 7.12228 10.0972 6.49206 10.6425C6.89686 11.1136 7.14164 11.7263 7.14164 12.396C7.14153 12.5949 7.11977 12.7886 7.07886 12.9752ZM15.9692 12.9752H20.9212C20.8802 12.7886 20.8585 12.5949 20.8585 12.396C20.8585 11.7263 21.1033 11.1137 21.508 10.6425C20.8778 10.0972 20.056 9.76724 19.1572 9.76724C17.4421 9.76724 16.0076 10.9686 15.6489 12.5756C15.6029 12.7817 15.7581 12.9752 15.9692 12.9752ZM19.1572 5.58534C20.161 5.58534 20.9747 6.39909 20.9747 7.40288C20.9747 8.40667 20.161 9.22037 19.1572 9.22037C18.1535 9.22037 17.3397 8.40662 17.3397 7.40288C17.3397 6.39915 18.1535 5.58534 19.1572 5.58534ZM8.84281 5.58534C9.84659 5.58534 10.6603 6.39909 10.6603 7.40288C10.6603 8.40667 9.84654 9.22037 8.84281 9.22037C7.83907 9.22037 7.02527 8.40662 7.02527 7.40288C7.02527 6.39915 7.83902 5.58534 8.84281 5.58534ZM14 0.875C15.0038 0.875 15.8175 1.68875 15.8175 2.69248C15.8175 3.69622 15.0038 4.51002 14 4.51002C12.9962 4.51002 12.1825 3.69627 12.1825 2.69248C12.1825 1.6887 12.9962 0.875 14 0.875Z" fill="white"/>
</g>
<defs>
<clipPath id="clip0_29_563">
<rect width="28" height="28" fill="white"/>
</clipPath>
</defs>
</svg>
