<svg xmlns="http://www.w3.org/2000/svg" width="76.685" height="60.725" viewBox="0 0 76.685 60.725">
  <g id="Group_1" data-name="Group 1" transform="translate(-56 -381)">
    <path id="Path_639" data-name="Path 639" d="M214.814,395.267a3.246,3.246,0,1,0-3.119,3.367A3.246,3.246,0,0,0,214.814,395.267Z" transform="translate(-82.132 16.714)" fill="#0072bc" fill-rule="evenodd"/>
    <path id="Path_640" data-name="Path 640" d="M212.578,375.765a3.246,3.246,0,1,0-.543,4.556,3.246,3.246,0,0,0,.543-4.556Z" transform="translate(-81.519 23.702)" fill="#0072bc" fill-rule="evenodd"/>
    <path id="Path_641" data-name="Path 641" d="M199.759,408.753a3.246,3.246,0,1,0,4.5-.893A3.246,3.246,0,0,0,199.759,408.753Z" transform="translate(-78.517 10.698)" fill="#0072bc" fill-rule="evenodd"/>
    <path id="Path_642" data-name="Path 642" d="M98.483,392.686a3.246,3.246,0,1,0-3.186,3.307,3.246,3.246,0,0,0,3.186-3.307Z" transform="translate(-35.992 17.762)" fill="#0072bc" fill-rule="evenodd"/>
    <path id="Path_643" data-name="Path 643" d="M99.022,408.441a3.246,3.246,0,1,0-.634,4.543,3.246,3.246,0,0,0,.634-4.543Z" transform="translate(-36.465 10.763)" fill="#0072bc" fill-rule="evenodd"/>
    <path id="Path_644" data-name="Path 644" d="M102,375.908a3.246,3.246,0,1,0,4.519-.8A3.246,3.246,0,0,0,102,375.908Z" transform="translate(-39.728 23.704)" fill="#0072bc" fill-rule="evenodd"/>
    <path id="Path_645" data-name="Path 645" d="M169.343,362.439c-.235,2.558-.241,4.568-.531,6.124-.314,1.683-2.365,5.913-3.62,8.689a9.353,9.353,0,0,1-.048,1.146c-.253,2.957-1.973,6.547-3.138,9.274-1.49,3.506-3.946,6.523-5.78,9.865-1.394,2.54-3.8,6.685-5.756,8.387-1.02.887-1.883.821-3.156.676a14.939,14.939,0,0,1-4.8-1.261,3.62,3.62,0,0,1-1.858-2.16c-1.086-3.162-.6-9.051-3.017-12.556-2.914-4.224-2.576-4.99-6.71-8.019-1.358-1-9.847-2.317-9.654-3.994.193-1.81,2.124-3.162,3.928-3.457,2.226-.362,4.181-.6,8.9,1.044,2.534.893,8.978,6.872,11.428,5.774a15.435,15.435,0,0,0,4.936-3.729,16.333,16.333,0,0,0,7.79.845l.718-.115c2.414-.392,4.881-2.2,5.153-4.755.151-1.448-1.207-2.281-2.323-2.782a27.708,27.708,0,0,0-3.578-1.207l-.76-.211a50.086,50.086,0,0,0,4.163-6.637c.567-1.11,1.207-3.282,1.689-4.453.6-1.5,1.484-2.945,2.16-4.314.537-1.1,1.062-2.77,1.611-3.687,1.315-2.184,3.554-4.622,6.275-4.918,1.877-.2,3.7.537,2.208,2.788-1.659,2.486-3.307,4.429-4.447,7.192-.875,2.118-1.032,4.326-1.762,6.438h0Z" transform="translate(-47.606 35.025)" fill="#0072bc" fill-rule="evenodd"/>
    <path id="Path_646" data-name="Path 646" d="M105.681,390.255c.235-2.558.241-4.568.531-6.124.314-1.684,2.365-5.913,3.62-8.689a9.353,9.353,0,0,1,.048-1.146c.253-2.957,1.979-6.547,3.138-9.274,1.49-3.506,3.946-6.523,5.78-9.865,1.394-2.54,3.8-6.685,5.756-8.387,1.02-.887,1.883-.821,3.156-.676a14.935,14.935,0,0,1,4.8,1.261,3.62,3.62,0,0,1,1.858,2.16c1.086,3.162.6,9.051,3.017,12.556,2.914,4.224,2.576,4.99,6.71,8.019,1.358,1,9.847,2.317,9.654,3.994-.193,1.81-2.124,3.162-3.928,3.457-2.227.362-4.181.6-8.9-1.044-2.534-.893-8.978-6.873-11.428-5.774a15.433,15.433,0,0,0-4.936,3.729,16.333,16.333,0,0,0-7.79-.845l-.718.115c-2.414.392-4.881,2.2-5.153,4.755-.151,1.448,1.207,2.281,2.323,2.782a27.649,27.649,0,0,0,3.578,1.207l.76.211a50.077,50.077,0,0,0-4.163,6.637c-.567,1.11-1.207,3.282-1.689,4.453-.6,1.5-1.484,2.944-2.16,4.308-.537,1.1-1.062,2.769-1.611,3.687-1.315,2.184-3.554,4.622-6.275,4.918-1.877.2-3.7-.537-2.208-2.788,1.659-2.486,3.307-4.429,4.447-7.192.875-2.118,1.032-4.326,1.762-6.438h0Z" transform="translate(-38.731 35.013)" fill="#0072bc" fill-rule="evenodd"/>
    <path id="Path_647" data-name="Path 647" d="M169.343,362.439c-.235,2.558-.241,4.568-.531,6.124-.314,1.683-2.365,5.913-3.62,8.689a9.353,9.353,0,0,1-.048,1.146c-.253,2.957-1.973,6.547-3.138,9.274-1.49,3.506-3.946,6.523-5.78,9.865-1.394,2.54-3.8,6.685-5.756,8.387-1.02.887-1.883.821-3.156.676a14.939,14.939,0,0,1-4.8-1.261,3.62,3.62,0,0,1-1.858-2.16c-1.086-3.162-.6-9.051-3.017-12.556-2.914-4.224-2.576-4.99-6.71-8.019-1.358-1-9.847-2.317-9.654-3.994.193-1.81,2.124-3.162,3.928-3.457,2.226-.362,4.181-.6,8.9,1.044,2.534.893,8.978,6.872,11.428,5.774a15.435,15.435,0,0,0,4.936-3.729,16.333,16.333,0,0,0,7.79.845l.718-.115c2.414-.392,4.881-2.2,5.153-4.755.151-1.448-1.207-2.281-2.323-2.782a27.708,27.708,0,0,0-3.578-1.207l-.76-.211a50.086,50.086,0,0,0,4.163-6.637c.567-1.11,1.207-3.282,1.689-4.453.6-1.5,1.484-2.945,2.16-4.314.537-1.1,1.062-2.77,1.611-3.687,1.315-2.184,3.554-4.622,6.275-4.918,1.877-.2,3.7.537,2.208,2.788-1.659,2.486-3.307,4.429-4.447,7.192-.875,2.118-1.032,4.326-1.762,6.438h0Z" transform="translate(-47.606 35.025)" fill="#e11b22" fill-rule="evenodd"/>
    <path id="Path_648" data-name="Path 648" d="M105.681,390.255c.235-2.558.241-4.568.531-6.124.314-1.684,2.365-5.913,3.62-8.689a9.353,9.353,0,0,1,.048-1.146c.253-2.957,1.979-6.547,3.138-9.274,1.49-3.506,3.946-6.523,5.78-9.865,1.394-2.54,3.8-6.685,5.756-8.387,1.02-.887,1.883-.821,3.156-.676a14.935,14.935,0,0,1,4.8,1.261,3.62,3.62,0,0,1,1.858,2.16c1.086,3.162.6,9.051,3.017,12.556,2.914,4.224,2.576,4.99,6.71,8.019,1.358,1,9.847,2.317,9.654,3.994-.193,1.81-2.124,3.162-3.928,3.457-2.227.362-4.181.6-8.9-1.044-2.534-.893-8.978-6.873-11.428-5.774a15.433,15.433,0,0,0-4.936,3.729,16.333,16.333,0,0,0-7.79-.845l-.718.115c-2.414.392-4.881,2.2-5.153,4.755-.151,1.448,1.207,2.281,2.323,2.782a27.649,27.649,0,0,0,3.578,1.207l.76.211a50.077,50.077,0,0,0-4.163,6.637c-.567,1.11-1.207,3.282-1.689,4.453-.6,1.5-1.484,2.944-2.16,4.308-.537,1.1-1.062,2.769-1.611,3.687-1.315,2.184-3.554,4.622-6.275,4.918-1.877.2-3.7-.537-2.208-2.788,1.659-2.486,3.307-4.429,4.447-7.192.875-2.118,1.032-4.326,1.762-6.438h0Z" transform="translate(-38.731 35.013)" fill="#0072bc" fill-rule="evenodd"/>
  </g>
</svg>
